<svg xmlns="http://www.w3.org/2000/svg" viewBox="0 0 800 600" fill="none">
  <rect width="800" height="600" fill="#f8fafc"/>
  <rect x="40" y="40" width="720" height="520" rx="16" fill="#ffffff" stroke="#e2e8f0"/>
  <text x="64" y="84" font-family="system-ui,sans-serif" font-size="14" fill="#64748b">Assessment · Chen L. · Subclass 189</text>
  <rect x="64" y="104" width="672" height="120" rx="12" fill="url(#grad)" stroke="#c7d2fe"/>
  <defs>
    <linearGradient id="grad" x1="0" y1="0" x2="1" y2="1">
      <stop offset="0%" stop-color="#eef2ff"/>
      <stop offset="100%" stop-color="#ffffff"/>
    </linearGradient>
  </defs>
  <text x="88" y="148" font-family="system-ui,sans-serif" font-size="13" fill="#64748b">Estimated total</text>
  <text x="88" y="196" font-family="system-ui,sans-serif" font-size="48" font-weight="700" fill="#6366f1">78</text>
  <text x="160" y="188" font-family="system-ui,sans-serif" font-size="20" fill="#94a3b8">pts</text>
  <rect x="600" y="140" width="100" height="32" rx="16" fill="#dcfce7"/>
  <text x="620" y="161" font-family="system-ui,sans-serif" font-size="12" font-weight="600" fill="#166534">Subclass 189</text>
  <rect x="64" y="248" width="672" height="180" rx="12" fill="#ffffff" stroke="#e2e8f0"/>
  <text x="88" y="280" font-family="system-ui,sans-serif" font-size="14" font-weight="600" fill="#0f172a">Points breakdown</text>
  <rect x="88" y="296" width="200" height="10" rx="4" fill="#6366f1"/>
  <text x="88" y="322" font-family="system-ui,sans-serif" font-size="12" fill="#64748b">Age</text>
  <text x="700" y="322" font-family="system-ui,sans-serif" font-size="12" font-weight="600" fill="#0f172a">30</text>
  <rect x="88" y="336" width="160" height="10" rx="4" fill="#818cf8"/>
  <text x="88" y="362" font-family="system-ui,sans-serif" font-size="12" fill="#64748b">English</text>
  <text x="700" y="362" font-family="system-ui,sans-serif" font-size="12" font-weight="600" fill="#0f172a">20</text>
  <rect x="88" y="376" width="120" height="10" rx="4" fill="#a5b4fc"/>
  <text x="88" y="402" font-family="system-ui,sans-serif" font-size="12" fill="#64748b">Employment</text>
  <text x="700" y="402" font-family="system-ui,sans-serif" font-size="12" font-weight="600" fill="#0f172a">15</text>
  <rect x="64" y="448" width="320" height="88" rx="12" fill="#f8fafc" stroke="#e2e8f0"/>
  <text x="88" y="480" font-family="system-ui,sans-serif" font-size="13" font-weight="600" fill="#0f172a">189</text>
  <text x="88" y="508" font-family="system-ui,sans-serif" font-size="24" font-weight="700" fill="#6366f1">78</text>
  <rect x="416" y="448" width="320" height="88" rx="12" fill="#f8fafc" stroke="#e2e8f0"/>
  <text x="440" y="480" font-family="system-ui,sans-serif" font-size="13" font-weight="600" fill="#0f172a">190</text>
  <text x="440" y="508" font-family="system-ui,sans-serif" font-size="24" font-weight="700" fill="#6366f1">83</text>
</svg>
